<svg id="Ebene_1" data-name="Ebene 1" xmlns="http://www.w3.org/2000/svg" viewBox="0 0 200 200"><defs><style>.cls-1{fill:none;stroke:#fff;stroke-miterlimit:10;stroke-width:8px;}.cls-2{fill:#fff;}</style></defs><title>Zeichenfläche 11</title><path class="cls-1" d="M100,20A60,60,0,0,0,40,80H160A60,60,0,0,0,100,20Z"/><path class="cls-1" d="M160,80a20,20,0,0,1-25.9,19.11,9.71,9.71,0,0,1-4.1.89,10,10,0,0,1-10-10,9.71,9.71,0,0,1,.89-4.1A19.88,19.88,0,0,1,120,80Z"/><path class="cls-1" d="M120,80a20,20,0,0,1-20,20,20,20,0,0,1-40,0A20,20,0,0,1,40,80Z"/><polygon class="cls-1" points="160 80 160 120 140 120 120 137 100 120 40 120 40 80 160 80"/><path class="cls-1" d="M40,140H160a0,0,0,0,1,0,0v22.63A17.38,17.38,0,0,1,142.63,180H57.38A17.38,17.38,0,0,1,40,162.62V140A0,0,0,0,1,40,140Z"/><line class="cls-1" x1="40" y1="120" x2="40" y2="140"/><line class="cls-1" x1="160" y1="120" x2="160" y2="140"/><circle class="cls-2" cx="137" cy="53" r="4"/><circle class="cls-2" cx="98" cy="36" r="4"/><circle class="cls-2" cx="101" cy="62" r="4"/><circle class="cls-2" cx="80" cy="59" r="4"/><circle class="cls-2" cx="56" cy="67" r="4"/></svg>