<svg id="Ebene_1" data-name="Ebene 1" xmlns="http://www.w3.org/2000/svg" viewBox="0 0 200 200"><defs><style>.cls-1{font-size:46.95px;font-family:NightclubBTN, Nightclub BTN;}.cls-1,.cls-4{fill:#1d1d1b;}.cls-2{letter-spacing:0.02em;}.cls-3{letter-spacing:-0.01em;}</style></defs><title>Zeichenfläche 21</title><text class="cls-1" transform="translate(51.66 84.86)"><tspan class="cls-2">A</tspan><tspan class="cls-3" x="33.72" y="0">D</tspan><tspan x="64.12" y="0">A</tspan></text><path class="cls-4" d="M33.05,137.59c-2.54-1.12-3.81-1.69-6.35-2.84C23.14,121,19.48,107.35,15.3,93.8c3.79-.51,5.68-.8,9.47-1.4,2.07,10.24,3.09,15.56,5.12,26.5C32.61,109,34,103.74,36.75,93c4.67.36,7,.55,11.68,1C43.53,108.55,38.44,123.11,33.05,137.59Z"/><path class="cls-4" d="M61.27,104.6c0,3.22,0,4.83-.07,8,5,.36,7.47.51,12.45.78,0,4.23,0,6.35,0,10.59-6.33-.07-9.5-.17-15.81-.5,0,3.28.08,4.93.14,8.22,7.3.67,11,.9,18.31,1.15-.23,5.69-.34,8.53-.57,14.2a198.69,198.69,0,0,1-25.24-3q-.48-26-1-52l28,.07c0,5,0,7.47-.07,12.45C71,104.62,67.74,104.64,61.27,104.6Z"/><path class="cls-4" d="M110.53,121.24c-2.71.26-4.06.38-6.77.6,5.45,7.12,8.18,10.66,13.67,17.43-3.49,3.8-5.24,5.7-8.76,9.44q-7-12.75-13.74-25.63c-.2,8.39-.3,12.58-.51,21-4.22.61-6.34.88-10.56,1.31q-1.64-25-3.24-50c9.91-1.08,14.86-1.67,24.75-2.81a13.12,13.12,0,0,1,1.53-.07,10.54,10.54,0,0,1,8.41,3.75c2.21,2.6,3.34,6.19,3.36,10.78a20.12,20.12,0,0,1-2,9.34C115.15,119.36,113.1,121,110.53,121.24Zm-3.08-20c-5.69.19-8.54.27-14.24.4.09,5.12.13,7.68.22,12.8,5.71.12,8.57.14,14.29.13C107.61,109.19,107.56,106.52,107.45,101.19Z"/><path class="cls-4" d="M137.78,143.18c-.94.2-6.4,1.36-16.46,2.66l-.27-49.94a60.24,60.24,0,0,1,14-2,17.18,17.18,0,0,1,14,6.76c3.52,4.38,5.31,9.93,5.37,16.93.07,6.47-1.34,11.92-4.23,16.5A19.61,19.61,0,0,1,137.78,143.18Zm4.44-39.38c-4.53.64-6.8,1-11.33,1.58,0,11.15,0,16.73,0,27.89,4.65-.44,7-.69,11.59-1.29Z"/><path class="cls-4" d="M168.65,103.06l0,7c4.93-.49,7.4-.76,12.31-1.35,0,3.31,0,5,.07,8.27-6.2,1.46-9.31,2.15-15.56,3.43.11,3,.16,4.42.27,7.36,7.21-1.69,10.8-2.63,17.92-4.67-.18,4.39-.27,6.6-.45,11A229.82,229.82,0,0,1,158.61,142l-2-50,28,0v9.39C178.29,102.14,175.08,102.45,168.65,103.06Z"/></svg>