<svg id="Ebene_1" data-name="Ebene 1" xmlns="http://www.w3.org/2000/svg" viewBox="0 0 200 200"><defs><style>.cls-1{fill:none;stroke:#fff;stroke-miterlimit:10;stroke-width:7px;}</style></defs><title>Zeichenfläche 16</title><rect class="cls-1" x="40" y="90" width="120" height="10" transform="translate(200 190) rotate(-180)"/><rect class="cls-1" x="40" y="40" width="40" height="50" transform="translate(120 130) rotate(-180)"/><path class="cls-1" d="M80,100a40,40,0,0,0,40,40l10,40H60V100Z"/><rect class="cls-1" x="40" y="20" width="40" height="20" transform="translate(120 60) rotate(-180)"/><path class="cls-1" d="M120,140a40,40,0,0,1-40-40h80A40,40,0,0,1,120,140Z"/><line class="cls-1" x1="60" y1="40" x2="60" y2="60"/><rect class="cls-1" x="80" y="80" width="80" height="10" transform="translate(240 170) rotate(-180)"/></svg>