<svg id="Ebene_1" data-name="Ebene 1" xmlns="http://www.w3.org/2000/svg" viewBox="0 0 180 180"><defs><style>.cls-1{fill:none;stroke:#1d1d1b;stroke-miterlimit:10;stroke-width:4px;}</style></defs><title>Zeichenfläche 42</title><rect class="cls-1" x="30" y="90" width="60" height="60"/><path class="cls-1" d="M90,30A60,60,0,0,0,30,90H90Z"/><path class="cls-1" d="M30,90H90a0,0,0,0,1,0,0v60a0,0,0,0,1,0,0h0A60,60,0,0,1,30,90v0A0,0,0,0,1,30,90Z"/><path class="cls-1" d="M90,150h40a40,40,0,0,0-40-40Z"/><path class="cls-1" d="M90,80h80c0-27.61-35.82-50-80-50Z"/><path class="cls-1" d="M170,80H132.69a20,20,0,0,1,22-29.45c8,6.85,13.28,15,14.85,23.86A31.58,31.58,0,0,1,170,80Z"/><path class="cls-1" d="M90,90V40A50,50,0,0,0,40,90Z"/><path class="cls-1" d="M90,90H70a20,20,0,0,0,20,20Z"/><path class="cls-1" d="M90,90V80h60a10,10,0,0,1-10,10Z"/><circle class="cls-1" cx="78" cy="58" r="2"/></svg>