<svg id="Ebene_1" data-name="Ebene 1" xmlns="http://www.w3.org/2000/svg" viewBox="0 0 180 180"><defs><style>.cls-1{fill:none;stroke:#1d1d1b;stroke-miterlimit:10;stroke-width:5px;}</style></defs><title>Zeichenfläche 43</title><path class="cls-1" d="M90,30A40,40,0,0,0,50,70H90Z"/><path class="cls-1" d="M150,90A60,60,0,0,0,90,30V90Z"/><path class="cls-1" d="M90,150a60,60,0,0,0,60-60H90Z"/><path class="cls-1" d="M70,70A20,20,0,0,0,90,90V70Z"/><path class="cls-1" d="M90,150V90a60,60,0,0,0-60,60Z"/><path class="cls-1" d="M90,110a40,40,0,0,0-40,40H90Z"/><path class="cls-1" d="M90,90h50A50,50,0,0,0,90,40Z"/><circle class="cls-1" cx="102" cy="58" r="2"/></svg>