<svg id="Ebene_1" data-name="Ebene 1" xmlns="http://www.w3.org/2000/svg" viewBox="0 0 180 180"><defs><style>.cls-1{fill:none;stroke:#1d1d1b;stroke-miterlimit:10;stroke-width:5px;}</style></defs><title>Zeichenfläche 41</title><path class="cls-1" d="M90,150a60,60,0,0,0,60-60H90Z"/><path class="cls-1" d="M150,90A60,60,0,0,0,90,30V90Z"/><path class="cls-1" d="M70,90H30a40,40,0,0,0,40,40Z"/><path class="cls-1" d="M30,70A20,20,0,0,0,10,90H50A20,20,0,0,0,30,70Z"/><path class="cls-1" d="M90,130a20,20,0,0,0-20,20H90Z"/><path class="cls-1" d="M70,90a20,20,0,0,0,20,20V90Z"/><path class="cls-1" d="M33.33,70.3A20,20,0,0,1,50,90H90V30A60,60,0,0,0,33.33,70.3Z"/><line class="cls-1" x1="90" y1="90" x2="120" y2="40"/><line class="cls-1" x1="140" y1="60" x2="90" y2="90"/><path class="cls-1" d="M70,90H40a30,30,0,0,0,30,30Z"/><circle class="cls-1" cx="58" cy="102" r="2"/></svg>